# xmcd
#
# Track frame offsets: 
#        150
#        15879
#        33533
#        47719
#        65214
#        81292
#        95682
#        111725
#        128322
#        149170
#        168329
#        185887
#        208643
#        226809
#        237819
#        250789
#        266134
#        282664
#        301195
#        319652
#        334478
#        351244
#
# Disc length: 4978 seconds
#
# Revision: 0
# Processed by: cddbd v1.5.2PL0 Copyright (c) Steve Scherf et al.
# Submitted via: ExactAudioCopyFreeDBPlugin 1.0
#
DISCID=53137016
DTITLE=Various Artist - Free Soul The Treasure Of Malaco
DYEAR=2014
DGENRE=Soul
TTITLE0=Power - Groovin'
TTITLE1=Dorothy Moore - Girl Overboard
TTITLE2=Patterson Twins - I Need Your Love
TTITLE3=Jewel Bass - Let Your Love Rain Down On Me
TTITLE4=Freedom - Get Up And Dance
TTITLE5=Dorothy Moore - What Am I To Do
TTITLE6=Power - I Can't Stop
TTITLE7=Denise LaSalle - Lady In The Street
TTITLE8=Mosley and Johnson - You Used To Be Mine
TTITLE9=Z.Z. Hill - When Can We Do This Again
TTITLE10=G.C. Cameron - Give Me Your Love
TTITLE11=Eddie Floyd - Take A Chance On Me
TTITLE12=Denise LaSalle - Come To Bed
TTITLE13=Dorothy Moore - It's So Good
TTITLE14=Tommy Tate - I Can't Do Enough For You Baby
TTITLE15=Fern Kinney with Frederick Knight - Sweet Life
TTITLE16=Mosley and Johnson - Baby Come Back
TTITLE17=King Floyd - I'm For Real
TTITLE18=G.C. Cameron - Hearts and Flowers
TTITLE19=Dorothy Moore - The Going Ups And The Coming Downs
TTITLE20=Fern Kinney - Pillow Talk
TTITLE21=Ruby Wilson - Make It With You
EXTD=
EXTT0=
EXTT1=
EXTT2=
EXTT3=
EXTT4=
EXTT5=
EXTT6=
EXTT7=
EXTT8=
EXTT9=
EXTT10=
EXTT11=
EXTT12=
EXTT13=
EXTT14=
EXTT15=
EXTT16=
EXTT17=
EXTT18=
EXTT19=
EXTT20=
EXTT21=
PLAYORDER=
